<svg width="616" height="54" viewBox="0 0 616 54" fill="none" xmlns="http://www.w3.org/2000/svg">
<path d="M610.519 0.422363L599.199 22.7094L587.879 0.422363H582.483L596.766 28.4345V53.993H601.738V28.4345L615.914 0.524635H610.519V0.422363Z" fill="white"/>
<path d="M511.284 41.7251L510.755 39.4759L487.903 0.52478H485.364V53.9931H490.337V12.6906L490.76 15.042L513.611 53.9931H516.256V0.52478H511.284V41.7251Z" fill="white"/>
<path d="M198.239 0.320312H193.372V53.8909H219.186V49.2903H198.239V0.320312Z" fill="white"/>
<path d="M411.201 4.30739C409.932 3.08058 408.557 2.16052 406.97 1.54712C405.277 0.831482 403.584 0.52478 401.786 0.52478H397.871C396.073 0.52478 394.274 0.831482 392.582 1.54712C390.995 2.16052 389.514 3.18281 388.35 4.30739C387.08 5.5342 386.128 6.86327 385.493 8.49902C384.753 10.1348 384.436 11.8727 384.436 13.6107V40.9072C384.436 42.6452 384.753 44.3832 385.493 46.0189C386.869 49.1882 389.408 51.6418 392.688 52.9708C394.38 53.6864 396.179 53.9931 397.977 53.9931H401.892C403.69 53.9931 405.489 53.6864 407.075 52.9708C408.662 52.2552 410.143 51.3351 411.307 50.1083C412.577 48.8815 413.529 47.5524 414.164 45.9166C414.904 44.2809 415.221 42.5429 415.221 40.8049V13.5084C415.221 11.7705 414.904 10.0325 414.164 8.39675C413.423 6.86324 412.365 5.43196 411.201 4.30739ZM410.143 40.8049C410.143 41.9295 409.932 43.0541 409.509 44.1786C409.086 45.201 408.451 46.1211 407.604 46.8368C406.758 47.6546 405.912 48.268 404.854 48.677C403.796 49.0859 402.632 49.3926 401.468 49.2903H398.083C396.919 49.2903 395.756 49.0859 394.698 48.677C392.582 47.8591 390.889 46.2233 390.043 44.1786C389.619 43.1563 389.302 42.0317 389.408 40.8049V13.5084C389.408 12.3839 389.619 11.2593 390.043 10.237C390.466 9.21467 391.101 8.29453 391.947 7.57889C392.793 6.86325 393.745 6.14762 394.698 5.73869C395.756 5.32975 396.919 5.02308 398.083 5.12531H401.468C402.632 5.12531 403.796 5.32975 404.854 5.73869C406.97 6.55656 408.662 8.19233 409.509 10.237C409.932 11.2593 410.249 12.3839 410.143 13.5084V40.8049Z" fill="white"/>
<path d="M311.652 4.20503C310.382 2.97823 309.007 2.05811 307.42 1.4447C305.727 0.729065 304.034 0.422363 302.236 0.422363H298.321C296.523 0.422363 294.725 0.729065 293.032 1.4447C291.445 2.05811 289.964 3.08046 288.8 4.20503C287.531 5.43184 286.578 6.76086 285.944 8.3966C285.203 10.0323 284.886 11.7703 284.886 13.5083V40.8048C284.886 42.5428 285.203 44.2807 285.944 45.9165C287.319 49.0857 289.858 51.5393 293.138 52.8684C294.83 53.584 296.629 53.8907 298.427 53.8907H302.342C304.14 53.8907 305.939 53.584 307.526 52.8684C309.113 52.1527 310.594 51.2327 311.757 50.0058C313.027 48.779 313.979 47.45 314.614 45.8143C315.354 44.1785 315.672 42.4406 315.672 40.7026V38.5556L310.805 37.84V40.7026C310.805 41.8272 310.594 42.9517 310.17 44.0763C309.747 45.0986 309.112 46.0187 308.266 46.7343C307.42 47.5522 306.573 48.1657 305.516 48.5746C304.458 48.9835 303.294 49.2902 302.13 49.188H298.745C297.581 49.188 296.417 48.9835 295.359 48.5746C293.243 47.7567 291.551 46.121 290.704 44.0763C290.281 43.0539 289.964 41.9294 290.07 40.7026V13.4061C290.07 12.2815 290.281 11.1569 290.704 10.1346C291.128 9.11225 291.762 8.19217 292.609 7.47653C293.455 6.7609 294.407 6.1475 295.359 5.63633C296.417 5.2274 297.581 4.92066 298.745 5.02289H302.13C303.294 5.02289 304.458 5.2274 305.516 5.63633C307.631 6.45421 309.324 8.08991 310.17 10.1346C310.594 11.1569 310.911 12.2815 310.805 13.4061V16.2686L315.672 15.553V13.4061C315.672 11.6681 315.354 9.93014 314.614 8.29439C313.873 6.76088 312.815 5.43184 311.652 4.20503Z" fill="white"/>
<path d="M28.8637 30.9905C28.229 29.9682 27.4884 29.1503 26.6421 28.3324C25.7957 27.5145 24.8435 26.9011 23.7856 26.2877H23.1508C23.9972 25.7765 24.7378 25.2654 25.4784 24.652C26.3247 23.9363 27.0653 23.0162 27.5943 22.0961C28.229 21.176 28.6521 20.1537 28.9695 19.0291C29.2869 17.9045 29.4985 16.78 29.4985 15.6554V12.4861C29.4985 10.8504 29.1811 9.21466 28.4405 7.78338C27.8058 6.35211 26.8537 5.02308 25.6899 3.8985C24.5262 2.77393 23.1508 1.85378 21.5639 1.24038C19.977 0.626977 18.2844 0.320312 16.5917 0.320312H0.0878906V26.2877V26.4922V53.7887H17.438C19.2365 53.7887 21.035 53.482 22.6219 52.7663C24.2088 52.1529 25.6899 51.1306 26.9594 50.006C28.2289 48.8814 29.1811 47.4502 29.8159 45.9166C30.5565 44.3831 30.8738 42.6452 30.8738 40.9072V37.5334C30.8738 35.3865 30.1333 33.0352 28.8637 30.9905ZM4.74271 4.61415H16.2743C17.3322 4.61415 18.4959 4.8186 19.5538 5.22753C20.506 5.63647 21.4581 6.24988 22.1987 6.96552C22.9392 7.68116 23.5741 8.49899 23.9972 9.4191C24.4204 10.4414 24.632 11.4638 24.632 12.5884V16.4733C24.632 17.4956 24.4204 18.6202 23.9972 19.5403C23.5741 20.4604 22.9392 21.3805 22.1987 22.0961C21.4581 22.8118 20.506 23.4252 19.5538 23.8341C18.4959 24.2431 17.438 24.4475 16.2743 24.4475H4.74271V4.61415ZM25.9015 41.1116C25.9015 42.2362 25.6899 43.3608 25.2667 44.3831C24.8435 45.4055 24.2089 46.2234 23.3625 47.0413C22.5162 47.7569 21.5639 48.3702 20.6118 48.7792C19.5538 49.1881 18.3902 49.4949 17.2264 49.3926H5.06014V28.5369H17.2264C18.3902 28.5369 19.5538 28.7414 20.6118 29.1503C21.6697 29.5592 22.622 30.1726 23.3625 30.8882C24.2089 31.6039 24.8435 32.524 25.2667 33.5464C25.6899 34.5687 26.0072 35.6933 25.9015 36.8179V41.1116Z" fill="white"/>
<path d="M126.934 17.2911V21.8917H115.931L125.664 53.8909H120.586L108.208 11.566L95.8304 53.8909H90.6465L106.833 0.320312H109.478L114.662 17.2911C114.556 17.2911 126.934 17.1889 126.934 17.2911Z" fill="white"/>
</svg>
