<svg width="218" height="20" viewBox="0 0 218 20" fill="none" xmlns="http://www.w3.org/2000/svg">
<path d="M216.09 0.536194L212.083 8.42571L208.076 0.536194H206.166L211.221 10.4524V19.5H212.982V10.4524L218 0.572398H216.09V0.536194Z" fill="#1E1231"/>
<path d="M180.961 15.1571L180.774 14.3609L172.685 0.572388H171.786V19.5H173.546V4.87904L173.696 5.71142L181.785 19.5H182.722V0.572388H180.961V15.1571Z" fill="#1E1231"/>
<path d="M70.145 0.5H68.4222V19.4638H77.5602V17.8352H70.145V0.5Z" fill="#1E1231"/>
<path d="M145.533 1.91142C145.084 1.47713 144.597 1.15144 144.035 0.934292C143.436 0.680959 142.837 0.572388 142.2 0.572388H140.814C140.178 0.572388 139.541 0.680959 138.942 0.934292C138.38 1.15144 137.856 1.51332 137.444 1.91142C136.994 2.3457 136.657 2.81619 136.433 3.39524C136.17 3.97429 136.058 4.58953 136.058 5.20476V14.8676C136.058 15.4829 136.17 16.0981 136.433 16.6771C136.919 17.7991 137.818 18.6676 138.979 19.1381C139.578 19.3914 140.215 19.5 140.852 19.5H142.237C142.874 19.5 143.511 19.3914 144.072 19.1381C144.634 18.8848 145.159 18.5591 145.571 18.1248C146.02 17.6905 146.357 17.22 146.582 16.6409C146.844 16.0619 146.956 15.4467 146.956 14.8314V5.16856C146.956 4.55332 146.844 3.93808 146.582 3.35904C146.32 2.81618 145.945 2.30951 145.533 1.91142ZM145.159 14.8314C145.159 15.2295 145.084 15.6276 144.934 16.0257C144.784 16.3876 144.559 16.7133 144.26 16.9667C143.96 17.2562 143.661 17.4733 143.286 17.6181C142.912 17.7629 142.5 17.8714 142.088 17.8352H140.889C140.477 17.8352 140.065 17.7629 139.691 17.6181C138.942 17.3286 138.343 16.7495 138.043 16.0257C137.893 15.6638 137.781 15.2657 137.818 14.8314V5.16856C137.818 4.77046 137.893 4.37239 138.043 4.01048C138.193 3.64858 138.417 3.32285 138.717 3.06952C139.017 2.81618 139.354 2.56285 139.691 2.41809C140.065 2.27333 140.477 2.16477 140.889 2.20096H142.088C142.5 2.20096 142.912 2.27333 143.286 2.41809C144.035 2.70762 144.634 3.28667 144.934 4.01048C145.084 4.37239 145.196 4.77046 145.159 5.16856V14.8314Z" fill="#1E1231"/>
<path d="M110.292 1.87525C109.843 1.44096 109.356 1.11524 108.794 0.898099C108.195 0.644765 107.596 0.536194 106.959 0.536194H105.573C104.937 0.536194 104.3 0.644765 103.701 0.898099C103.139 1.11524 102.615 1.47715 102.203 1.87525C101.753 2.30953 101.416 2.78 101.192 3.35905C100.929 3.93809 100.817 4.55333 100.817 5.16857V14.8314C100.817 15.4467 100.929 16.0619 101.192 16.641C101.678 17.7629 102.577 18.6314 103.738 19.1019C104.337 19.3552 104.974 19.4638 105.611 19.4638H106.996C107.633 19.4638 108.27 19.3552 108.831 19.1019C109.393 18.8486 109.918 18.5229 110.329 18.0886C110.779 17.6543 111.116 17.1838 111.341 16.6048C111.603 16.0257 111.715 15.4105 111.715 14.7952V14.0352L109.992 13.7819V14.7952C109.992 15.1933 109.918 15.5914 109.768 15.9895C109.618 16.3514 109.393 16.6771 109.094 16.9305C108.794 17.22 108.494 17.4372 108.12 17.5819C107.745 17.7267 107.333 17.8352 106.921 17.7991H105.723C105.311 17.7991 104.899 17.7267 104.525 17.5819C103.776 17.2924 103.176 16.7133 102.877 15.9895C102.727 15.6276 102.615 15.2295 102.652 14.7952V5.13239C102.652 4.73429 102.727 4.33619 102.877 3.97429C103.027 3.61238 103.251 3.28668 103.551 3.03335C103.851 2.78001 104.188 2.56287 104.525 2.38192C104.899 2.23716 105.311 2.12857 105.723 2.16477H106.921C107.333 2.16477 107.745 2.23716 108.12 2.38192C108.869 2.67145 109.468 3.25048 109.768 3.97429C109.918 4.33619 110.03 4.73429 109.992 5.13239V6.14572L111.715 5.89238V5.13239C111.715 4.51715 111.603 3.90191 111.341 3.32286C111.078 2.78001 110.704 2.30953 110.292 1.87525Z" fill="#1E1231"/>
<path d="M10.1865 11.3571C9.96184 10.9952 9.6997 10.7057 9.40009 10.4162C9.10049 10.1267 8.76341 9.90951 8.3889 9.69237H8.16421C8.46381 9.51141 8.72599 9.33047 8.98815 9.11333C9.28775 8.85999 9.54991 8.53428 9.73716 8.20857C9.96186 7.88285 10.1116 7.52095 10.224 7.12285C10.3363 6.72476 10.4112 6.32667 10.4112 5.92857V4.80665C10.4112 4.22761 10.2989 3.64857 10.0367 3.1419C9.81203 2.63523 9.47499 2.16476 9.06303 1.76667C8.65107 1.36857 8.16421 1.04284 7.60245 0.825701C7.04069 0.608558 6.4415 0.5 5.84229 0.5H0V9.69237V9.76475V19.4276H6.14186C6.77852 19.4276 7.41519 19.319 7.97695 19.0657C8.53871 18.8486 9.06301 18.4867 9.51242 18.0886C9.96183 17.6905 10.2989 17.1838 10.5236 16.6409C10.7858 16.0981 10.8981 15.4829 10.8981 14.8676V13.6733C10.8981 12.9133 10.636 12.081 10.1865 11.3571ZM1.64779 2.02H5.72992C6.10442 2.02 6.51637 2.09238 6.89088 2.23714C7.22793 2.3819 7.56499 2.59905 7.82714 2.85238C8.0893 3.10571 8.31403 3.39522 8.46383 3.72094C8.61363 4.08284 8.68852 4.44476 8.68852 4.84286V6.21809C8.68852 6.58 8.61363 6.97809 8.46383 7.3038C8.31403 7.62952 8.0893 7.95523 7.82714 8.20857C7.56499 8.4619 7.22793 8.67905 6.89088 8.82381C6.51637 8.96857 6.14187 9.04094 5.72992 9.04094H1.64779V2.02ZM9.13791 14.94C9.13791 15.3381 9.06302 15.7362 8.91322 16.0981C8.76342 16.46 8.53874 16.7495 8.23913 17.0391C7.93953 17.2924 7.60244 17.5095 7.26538 17.6543C6.89088 17.799 6.47894 17.9076 6.06698 17.8714H1.76016V10.4886H6.06698C6.47894 10.4886 6.89088 10.561 7.26538 10.7057C7.63989 10.8505 7.97698 11.0676 8.23913 11.3209C8.53874 11.5743 8.76342 11.9 8.91322 12.2619C9.06302 12.6238 9.17536 13.0219 9.13791 13.42V14.94Z" fill="#1E1231"/>
<path d="M44.9032 6.50761V8.13618H41.0084L44.4539 19.4638H42.6562L38.2745 4.48095L33.8928 19.4638H32.0577L37.7876 0.5H38.7239L40.559 6.50761C40.5215 6.50761 44.9032 6.47142 44.9032 6.50761Z" fill="#1E1231"/>
</svg>
