<svg width="536" height="48" viewBox="0 0 536 48" fill="none" xmlns="http://www.w3.org/2000/svg">
<mask id="path-1-outside-1_559_4186" maskUnits="userSpaceOnUse" x="0.646851" y="0" width="535" height="48" fill="black">
<rect fill="white" x="0.646851" width="535" height="48"/>
<path d="M15.8656 9.84375L9.8656 32.1562L5.83435 46.4375H1.64685L14.7719 1.625H16.8969L21 16H31V20H22L30.0844 46.4375H25.9281L15.8656 9.84375Z"/>
<path d="M69.9968 36.0625C69.9968 37.5833 69.6843 39.0104 69.0593 40.3438C68.4552 41.6771 67.6323 42.8438 66.5906 43.8438C65.5698 44.8438 64.3718 45.6354 62.9968 46.2188C61.6427 46.7812 60.2052 47.0625 58.6843 47.0625H55.4656C53.9448 47.0625 52.4968 46.7812 51.1218 46.2188C49.7677 45.6354 48.5698 44.8438 47.5281 43.8438C46.5073 42.8438 45.6843 41.6771 45.0593 40.3438C44.4552 39.0104 44.1531 37.5833 44.1531 36.0625V34.2812L48.1843 33.625V36.0625C48.1843 37.0625 48.3823 38 48.7781 38.875C49.1948 39.7292 49.7468 40.4896 50.4343 41.1562C51.1218 41.8021 51.9135 42.3125 52.8093 42.6875C53.726 43.0625 54.6843 43.25 55.6843 43.25H58.4968C59.4968 43.25 60.4448 43.0625 61.3406 42.6875C62.2364 42.3125 63.0281 41.8021 63.7156 41.1562C64.4031 40.4896 64.9448 39.7292 65.3406 38.875C65.7573 38 65.9656 37.0625 65.9656 36.0625V34.7188C65.9656 33.1771 65.6635 31.8958 65.0593 30.875C64.4552 29.8542 63.6531 28.9896 62.6531 28.2812C61.6531 27.5521 60.5177 26.9375 59.2468 26.4375C57.9968 25.9375 56.7052 25.4375 55.3718 24.9375C54.0385 24.4375 52.7364 23.8854 51.4656 23.2812C50.2156 22.6771 49.0906 21.9271 48.0906 21.0312C47.0906 20.1146 46.2885 19 45.6843 17.6875C45.0802 16.375 44.7781 14.7604 44.7781 12.8438V12C44.7781 10.4792 45.0593 9.05208 45.6218 7.71875C46.2052 6.38542 46.9968 5.21875 47.9968 4.21875C48.9968 3.21875 50.1635 2.4375 51.4968 1.875C52.851 1.29167 54.2885 1 55.8093 1H58.6843C60.2052 1 61.6323 1.29167 62.9656 1.875C64.2989 2.4375 65.4656 3.21875 66.4656 4.21875C67.4656 5.21875 68.2468 6.38542 68.8093 7.71875C69.3927 9.05208 69.6843 10.4792 69.6843 12V13.1562L65.6531 13.8125V12C65.6531 11 65.4656 10.0729 65.0906 9.21875C64.7156 8.34375 64.2052 7.58333 63.5593 6.9375C62.9135 6.29167 62.1531 5.78125 61.2781 5.40625C60.4239 5.03125 59.4968 4.84375 58.4968 4.84375H55.9968C54.9968 4.84375 54.0593 5.03125 53.1843 5.40625C52.3302 5.78125 51.5698 6.29167 50.9031 6.9375C50.2573 7.58333 49.7468 8.34375 49.3718 9.21875C48.9968 10.0729 48.8093 11 48.8093 12V12.8438C48.8093 14.2812 49.1114 15.4896 49.7156 16.4688C50.3198 17.4479 51.1218 18.2917 52.1218 19C53.1218 19.6875 54.2468 20.2917 55.4968 20.8125C56.7677 21.3125 58.0698 21.8333 59.4031 22.375C60.7364 22.8958 62.0281 23.4792 63.2781 24.125C64.5489 24.75 65.6843 25.5312 66.6843 26.4688C67.6843 27.3854 68.4864 28.5104 69.0906 29.8438C69.6948 31.1771 69.9968 32.8021 69.9968 34.7188V36.0625Z"/>
<path d="M112.847 36.0625C112.847 37.5833 112.534 39.0104 111.909 40.3438C111.305 41.6771 110.482 42.8438 109.441 43.8438C108.42 44.8438 107.222 45.6354 105.847 46.2188C104.493 46.7812 103.055 47.0625 101.534 47.0625H98.3156C96.7948 47.0625 95.3468 46.7812 93.9718 46.2188C92.6177 45.6354 91.4198 44.8438 90.3781 43.8438C89.3573 42.8438 88.5343 41.6771 87.9093 40.3438C87.3052 39.0104 87.0031 37.5833 87.0031 36.0625V34.2812L91.0343 33.625V36.0625C91.0343 37.0625 91.2323 38 91.6281 38.875C92.0448 39.7292 92.5968 40.4896 93.2843 41.1562C93.9718 41.8021 94.7635 42.3125 95.6593 42.6875C96.576 43.0625 97.5343 43.25 98.5343 43.25H101.347C102.347 43.25 103.295 43.0625 104.191 42.6875C105.086 42.3125 105.878 41.8021 106.566 41.1562C107.253 40.4896 107.795 39.7292 108.191 38.875C108.607 38 108.816 37.0625 108.816 36.0625V34.7188C108.816 33.1771 108.514 31.8958 107.909 30.875C107.305 29.8542 106.503 28.9896 105.503 28.2812C104.503 27.5521 103.368 26.9375 102.097 26.4375C100.847 25.9375 99.5552 25.4375 98.2218 24.9375C96.8885 24.4375 95.5864 23.8854 94.3156 23.2812C93.0656 22.6771 91.9406 21.9271 90.9406 21.0312C89.9406 20.1146 89.1385 19 88.5343 17.6875C87.9302 16.375 87.6281 14.7604 87.6281 12.8438V12C87.6281 10.4792 87.9093 9.05208 88.4718 7.71875C89.0552 6.38542 89.8468 5.21875 90.8468 4.21875C91.8468 3.21875 93.0135 2.4375 94.3468 1.875C95.701 1.29167 97.1385 1 98.6593 1H101.534C103.055 1 104.482 1.29167 105.816 1.875C107.149 2.4375 108.316 3.21875 109.316 4.21875C110.316 5.21875 111.097 6.38542 111.659 7.71875C112.243 9.05208 112.534 10.4792 112.534 12V13.1562L108.503 13.8125V12C108.503 11 108.316 10.0729 107.941 9.21875C107.566 8.34375 107.055 7.58333 106.409 6.9375C105.764 6.29167 105.003 5.78125 104.128 5.40625C103.274 5.03125 102.347 4.84375 101.347 4.84375H98.8468C97.8468 4.84375 96.9093 5.03125 96.0343 5.40625C95.1802 5.78125 94.4198 6.29167 93.7531 6.9375C93.1073 7.58333 92.5968 8.34375 92.2218 9.21875C91.8468 10.0729 91.6593 11 91.6593 12V12.8438C91.6593 14.2812 91.9614 15.4896 92.5656 16.4688C93.1698 17.4479 93.9718 18.2917 94.9718 19C95.9718 19.6875 97.0968 20.2917 98.3468 20.8125C99.6177 21.3125 100.92 21.8333 102.253 22.375C103.586 22.8958 104.878 23.4792 106.128 24.125C107.399 24.75 108.534 25.5312 109.534 26.4688C110.534 27.3854 111.336 28.5104 111.941 29.8438C112.545 31.1771 112.847 32.8021 112.847 34.7188V36.0625Z"/>
<path d="M131.134 46.4375V1.625H156.353V5.46875H135.166V22.125H152.322V25.9688H135.166V42.5938H156.353V46.4375H131.134Z"/>
<path d="M184.547 5.46875V46.4375H180.516V5.46875H169.828V1.625H195.234V5.46875H184.547Z"/>
<path d="M256.684 46.4375L244.528 27.3125H238.997V46.4375H234.966V1.625H249.184C250.705 1.625 252.132 1.91667 253.466 2.5C254.799 3.0625 255.966 3.84375 256.966 4.84375C257.966 5.84375 258.747 7.02083 259.309 8.375C259.893 9.70833 260.184 11.1354 260.184 12.6562V16.2812C260.184 17.8021 259.893 19.2396 259.309 20.5938C258.747 21.9271 257.966 23.0938 256.966 24.0938C255.966 25.0938 254.799 25.8854 253.466 26.4688C252.132 27.0312 250.705 27.3125 249.184 27.3125L261.341 46.4375H256.684ZM256.153 12.6562C256.153 11.6562 255.966 10.7292 255.591 9.875C255.216 9 254.705 8.23958 254.059 7.59375C253.414 6.92708 252.653 6.40625 251.778 6.03125C250.924 5.65625 249.997 5.46875 248.997 5.46875H238.997V23.4688H248.997C249.997 23.4688 250.924 23.2812 251.778 22.9062C252.653 22.5312 253.414 22.0208 254.059 21.375C254.705 20.7083 255.216 19.9479 255.591 19.0938C255.966 18.2188 256.153 17.2812 256.153 16.2812V12.6562Z"/>
<path d="M278.659 46.4375V1.625H303.878V5.46875H282.691V22.125H299.847V25.9688H282.691V42.5938H303.878V46.4375H278.659Z"/>
<path d="M345.759 46.4375H344.478L342.134 42.8438C341.155 44.1354 339.968 45.1667 338.572 45.9375C337.176 46.6875 335.624 47.0625 333.916 47.0625H331.572C330.051 47.0625 328.613 46.7812 327.259 46.2188C325.926 45.6354 324.759 44.8438 323.759 43.8438C322.759 42.8438 321.968 41.6771 321.384 40.3438C320.822 39.0104 320.541 37.5833 320.541 36.0625V12C320.541 10.4792 320.822 9.05208 321.384 7.71875C321.968 6.38542 322.759 5.21875 323.759 4.21875C324.759 3.21875 325.926 2.4375 327.259 1.875C328.613 1.29167 330.051 1 331.572 1H334.759C336.28 1 337.707 1.29167 339.041 1.875C340.374 2.4375 341.541 3.21875 342.541 4.21875C343.541 5.21875 344.322 6.38542 344.884 7.71875C345.468 9.05208 345.759 10.4792 345.759 12V13.8125L341.728 14.4375V12C341.728 11 341.541 10.0729 341.166 9.21875C340.791 8.34375 340.28 7.58333 339.634 6.9375C338.988 6.29167 338.228 5.78125 337.353 5.40625C336.499 5.03125 335.572 4.84375 334.572 4.84375H331.759C330.759 4.84375 329.822 5.03125 328.947 5.40625C328.093 5.78125 327.332 6.29167 326.666 6.9375C326.02 7.58333 325.509 8.34375 325.134 9.21875C324.759 10.0729 324.572 11 324.572 12V36.0625C324.572 37.0625 324.759 38 325.134 38.875C325.509 39.7292 326.02 40.4896 326.666 41.1562C327.332 41.8021 328.093 42.3125 328.947 42.6875C329.822 43.0625 330.759 43.25 331.759 43.25H334.572C335.572 43.25 336.499 43.0625 337.353 42.6875C338.228 42.3125 338.988 41.8021 339.634 41.1562C340.28 40.4896 340.791 39.7292 341.166 38.875C341.541 38 341.728 37.0625 341.728 36.0625V26.7188H334.572V22.875H345.759V46.4375Z"/>
<path d="M364.984 46.4375V1.625H369.016V46.4375H364.984Z"/>
<path d="M413.459 36.0625C413.459 37.5833 413.147 39.0104 412.522 40.3438C411.918 41.6771 411.095 42.8438 410.053 43.8438C409.032 44.8438 407.834 45.6354 406.459 46.2188C405.105 46.7812 403.668 47.0625 402.147 47.0625H398.928C397.407 47.0625 395.959 46.7812 394.584 46.2188C393.23 45.6354 392.032 44.8438 390.991 43.8438C389.97 42.8438 389.147 41.6771 388.522 40.3438C387.918 39.0104 387.616 37.5833 387.616 36.0625V34.2812L391.647 33.625V36.0625C391.647 37.0625 391.845 38 392.241 38.875C392.657 39.7292 393.209 40.4896 393.897 41.1562C394.584 41.8021 395.376 42.3125 396.272 42.6875C397.189 43.0625 398.147 43.25 399.147 43.25H401.959C402.959 43.25 403.907 43.0625 404.803 42.6875C405.699 42.3125 406.491 41.8021 407.178 41.1562C407.866 40.4896 408.407 39.7292 408.803 38.875C409.22 38 409.428 37.0625 409.428 36.0625V34.7188C409.428 33.1771 409.126 31.8958 408.522 30.875C407.918 29.8542 407.116 28.9896 406.116 28.2812C405.116 27.5521 403.98 26.9375 402.709 26.4375C401.459 25.9375 400.168 25.4375 398.834 24.9375C397.501 24.4375 396.199 23.8854 394.928 23.2812C393.678 22.6771 392.553 21.9271 391.553 21.0312C390.553 20.1146 389.751 19 389.147 17.6875C388.543 16.375 388.241 14.7604 388.241 12.8438V12C388.241 10.4792 388.522 9.05208 389.084 7.71875C389.668 6.38542 390.459 5.21875 391.459 4.21875C392.459 3.21875 393.626 2.4375 394.959 1.875C396.314 1.29167 397.751 1 399.272 1H402.147C403.668 1 405.095 1.29167 406.428 1.875C407.761 2.4375 408.928 3.21875 409.928 4.21875C410.928 5.21875 411.709 6.38542 412.272 7.71875C412.855 9.05208 413.147 10.4792 413.147 12V13.1562L409.116 13.8125V12C409.116 11 408.928 10.0729 408.553 9.21875C408.178 8.34375 407.668 7.58333 407.022 6.9375C406.376 6.29167 405.616 5.78125 404.741 5.40625C403.886 5.03125 402.959 4.84375 401.959 4.84375H399.459C398.459 4.84375 397.522 5.03125 396.647 5.40625C395.793 5.78125 395.032 6.29167 394.366 6.9375C393.72 7.58333 393.209 8.34375 392.834 9.21875C392.459 10.0729 392.272 11 392.272 12V12.8438C392.272 14.2812 392.574 15.4896 393.178 16.4688C393.782 17.4479 394.584 18.2917 395.584 19C396.584 19.6875 397.709 20.2917 398.959 20.8125C400.23 21.3125 401.532 21.8333 402.866 22.375C404.199 22.8958 405.491 23.4792 406.741 24.125C408.011 24.75 409.147 25.5312 410.147 26.4688C411.147 27.3854 411.949 28.5104 412.553 29.8438C413.157 31.1771 413.459 32.8021 413.459 34.7188V36.0625Z"/>
<path d="M442.622 5.46875V46.4375H438.591V5.46875H427.903V1.625H453.309V5.46875H442.622Z"/>
<path d="M490.409 46.4375L478.253 27.3125H472.722V46.4375H468.691V1.625H482.909C484.43 1.625 485.857 1.91667 487.191 2.5C488.524 3.0625 489.691 3.84375 490.691 4.84375C491.691 5.84375 492.472 7.02083 493.034 8.375C493.618 9.70833 493.909 11.1354 493.909 12.6562V16.2812C493.909 17.8021 493.618 19.2396 493.034 20.5938C492.472 21.9271 491.691 23.0938 490.691 24.0938C489.691 25.0938 488.524 25.8854 487.191 26.4688C485.857 27.0312 484.43 27.3125 482.909 27.3125L495.066 46.4375H490.409ZM489.878 12.6562C489.878 11.6562 489.691 10.7292 489.316 9.875C488.941 9 488.43 8.23958 487.784 7.59375C487.139 6.92708 486.378 6.40625 485.503 6.03125C484.649 5.65625 483.722 5.46875 482.722 5.46875H472.722V23.4688H482.722C483.722 23.4688 484.649 23.2812 485.503 22.9062C486.378 22.5312 487.139 22.0208 487.784 21.375C488.43 20.7083 488.941 19.9479 489.316 19.0938C489.691 18.2188 489.878 17.2812 489.878 16.2812V12.6562Z"/>
<path d="M522.853 25V46.4375H518.822V25.0625L507.228 1.625H511.572L520.791 20.25L530.009 1.625H534.353L522.853 25Z"/>
</mask>
<path d="M15.8656 9.84375L9.8656 32.1562L5.83435 46.4375H1.64685L14.7719 1.625H16.8969L21 16H31V20H22L30.0844 46.4375H25.9281L15.8656 9.84375Z" fill="#1E1231"/>
<path d="M69.9968 36.0625C69.9968 37.5833 69.6843 39.0104 69.0593 40.3438C68.4552 41.6771 67.6323 42.8438 66.5906 43.8438C65.5698 44.8438 64.3718 45.6354 62.9968 46.2188C61.6427 46.7812 60.2052 47.0625 58.6843 47.0625H55.4656C53.9448 47.0625 52.4968 46.7812 51.1218 46.2188C49.7677 45.6354 48.5698 44.8438 47.5281 43.8438C46.5073 42.8438 45.6843 41.6771 45.0593 40.3438C44.4552 39.0104 44.1531 37.5833 44.1531 36.0625V34.2812L48.1843 33.625V36.0625C48.1843 37.0625 48.3823 38 48.7781 38.875C49.1948 39.7292 49.7468 40.4896 50.4343 41.1562C51.1218 41.8021 51.9135 42.3125 52.8093 42.6875C53.726 43.0625 54.6843 43.25 55.6843 43.25H58.4968C59.4968 43.25 60.4448 43.0625 61.3406 42.6875C62.2364 42.3125 63.0281 41.8021 63.7156 41.1562C64.4031 40.4896 64.9448 39.7292 65.3406 38.875C65.7573 38 65.9656 37.0625 65.9656 36.0625V34.7188C65.9656 33.1771 65.6635 31.8958 65.0593 30.875C64.4552 29.8542 63.6531 28.9896 62.6531 28.2812C61.6531 27.5521 60.5177 26.9375 59.2468 26.4375C57.9968 25.9375 56.7052 25.4375 55.3718 24.9375C54.0385 24.4375 52.7364 23.8854 51.4656 23.2812C50.2156 22.6771 49.0906 21.9271 48.0906 21.0312C47.0906 20.1146 46.2885 19 45.6843 17.6875C45.0802 16.375 44.7781 14.7604 44.7781 12.8438V12C44.7781 10.4792 45.0593 9.05208 45.6218 7.71875C46.2052 6.38542 46.9968 5.21875 47.9968 4.21875C48.9968 3.21875 50.1635 2.4375 51.4968 1.875C52.851 1.29167 54.2885 1 55.8093 1H58.6843C60.2052 1 61.6323 1.29167 62.9656 1.875C64.2989 2.4375 65.4656 3.21875 66.4656 4.21875C67.4656 5.21875 68.2468 6.38542 68.8093 7.71875C69.3927 9.05208 69.6843 10.4792 69.6843 12V13.1562L65.6531 13.8125V12C65.6531 11 65.4656 10.0729 65.0906 9.21875C64.7156 8.34375 64.2052 7.58333 63.5593 6.9375C62.9135 6.29167 62.1531 5.78125 61.2781 5.40625C60.4239 5.03125 59.4968 4.84375 58.4968 4.84375H55.9968C54.9968 4.84375 54.0593 5.03125 53.1843 5.40625C52.3302 5.78125 51.5698 6.29167 50.9031 6.9375C50.2573 7.58333 49.7468 8.34375 49.3718 9.21875C48.9968 10.0729 48.8093 11 48.8093 12V12.8438C48.8093 14.2812 49.1114 15.4896 49.7156 16.4688C50.3198 17.4479 51.1218 18.2917 52.1218 19C53.1218 19.6875 54.2468 20.2917 55.4968 20.8125C56.7677 21.3125 58.0698 21.8333 59.4031 22.375C60.7364 22.8958 62.0281 23.4792 63.2781 24.125C64.5489 24.75 65.6843 25.5312 66.6843 26.4688C67.6843 27.3854 68.4864 28.5104 69.0906 29.8438C69.6948 31.1771 69.9968 32.8021 69.9968 34.7188V36.0625Z" fill="#1E1231"/>
<path d="M112.847 36.0625C112.847 37.5833 112.534 39.0104 111.909 40.3438C111.305 41.6771 110.482 42.8438 109.441 43.8438C108.42 44.8438 107.222 45.6354 105.847 46.2188C104.493 46.7812 103.055 47.0625 101.534 47.0625H98.3156C96.7948 47.0625 95.3468 46.7812 93.9718 46.2188C92.6177 45.6354 91.4198 44.8438 90.3781 43.8438C89.3573 42.8438 88.5343 41.6771 87.9093 40.3438C87.3052 39.0104 87.0031 37.5833 87.0031 36.0625V34.2812L91.0343 33.625V36.0625C91.0343 37.0625 91.2323 38 91.6281 38.875C92.0448 39.7292 92.5968 40.4896 93.2843 41.1562C93.9718 41.8021 94.7635 42.3125 95.6593 42.6875C96.576 43.0625 97.5343 43.25 98.5343 43.25H101.347C102.347 43.25 103.295 43.0625 104.191 42.6875C105.086 42.3125 105.878 41.8021 106.566 41.1562C107.253 40.4896 107.795 39.7292 108.191 38.875C108.607 38 108.816 37.0625 108.816 36.0625V34.7188C108.816 33.1771 108.514 31.8958 107.909 30.875C107.305 29.8542 106.503 28.9896 105.503 28.2812C104.503 27.5521 103.368 26.9375 102.097 26.4375C100.847 25.9375 99.5552 25.4375 98.2218 24.9375C96.8885 24.4375 95.5864 23.8854 94.3156 23.2812C93.0656 22.6771 91.9406 21.9271 90.9406 21.0312C89.9406 20.1146 89.1385 19 88.5343 17.6875C87.9302 16.375 87.6281 14.7604 87.6281 12.8438V12C87.6281 10.4792 87.9093 9.05208 88.4718 7.71875C89.0552 6.38542 89.8468 5.21875 90.8468 4.21875C91.8468 3.21875 93.0135 2.4375 94.3468 1.875C95.701 1.29167 97.1385 1 98.6593 1H101.534C103.055 1 104.482 1.29167 105.816 1.875C107.149 2.4375 108.316 3.21875 109.316 4.21875C110.316 5.21875 111.097 6.38542 111.659 7.71875C112.243 9.05208 112.534 10.4792 112.534 12V13.1562L108.503 13.8125V12C108.503 11 108.316 10.0729 107.941 9.21875C107.566 8.34375 107.055 7.58333 106.409 6.9375C105.764 6.29167 105.003 5.78125 104.128 5.40625C103.274 5.03125 102.347 4.84375 101.347 4.84375H98.8468C97.8468 4.84375 96.9093 5.03125 96.0343 5.40625C95.1802 5.78125 94.4198 6.29167 93.7531 6.9375C93.1073 7.58333 92.5968 8.34375 92.2218 9.21875C91.8468 10.0729 91.6593 11 91.6593 12V12.8438C91.6593 14.2812 91.9614 15.4896 92.5656 16.4688C93.1698 17.4479 93.9718 18.2917 94.9718 19C95.9718 19.6875 97.0968 20.2917 98.3468 20.8125C99.6177 21.3125 100.92 21.8333 102.253 22.375C103.586 22.8958 104.878 23.4792 106.128 24.125C107.399 24.75 108.534 25.5312 109.534 26.4688C110.534 27.3854 111.336 28.5104 111.941 29.8438C112.545 31.1771 112.847 32.8021 112.847 34.7188V36.0625Z" fill="#1E1231"/>
<path d="M131.134 46.4375V1.625H156.353V5.46875H135.166V22.125H152.322V25.9688H135.166V42.5938H156.353V46.4375H131.134Z" fill="#1E1231"/>
<path d="M184.547 5.46875V46.4375H180.516V5.46875H169.828V1.625H195.234V5.46875H184.547Z" fill="#1E1231"/>
<path d="M256.684 46.4375L244.528 27.3125H238.997V46.4375H234.966V1.625H249.184C250.705 1.625 252.132 1.91667 253.466 2.5C254.799 3.0625 255.966 3.84375 256.966 4.84375C257.966 5.84375 258.747 7.02083 259.309 8.375C259.893 9.70833 260.184 11.1354 260.184 12.6562V16.2812C260.184 17.8021 259.893 19.2396 259.309 20.5938C258.747 21.9271 257.966 23.0938 256.966 24.0938C255.966 25.0938 254.799 25.8854 253.466 26.4688C252.132 27.0312 250.705 27.3125 249.184 27.3125L261.341 46.4375H256.684ZM256.153 12.6562C256.153 11.6562 255.966 10.7292 255.591 9.875C255.216 9 254.705 8.23958 254.059 7.59375C253.414 6.92708 252.653 6.40625 251.778 6.03125C250.924 5.65625 249.997 5.46875 248.997 5.46875H238.997V23.4688H248.997C249.997 23.4688 250.924 23.2812 251.778 22.9062C252.653 22.5312 253.414 22.0208 254.059 21.375C254.705 20.7083 255.216 19.9479 255.591 19.0938C255.966 18.2188 256.153 17.2812 256.153 16.2812V12.6562Z" fill="#1E1231"/>
<path d="M278.659 46.4375V1.625H303.878V5.46875H282.691V22.125H299.847V25.9688H282.691V42.5938H303.878V46.4375H278.659Z" fill="#1E1231"/>
<path d="M345.759 46.4375H344.478L342.134 42.8438C341.155 44.1354 339.968 45.1667 338.572 45.9375C337.176 46.6875 335.624 47.0625 333.916 47.0625H331.572C330.051 47.0625 328.613 46.7812 327.259 46.2188C325.926 45.6354 324.759 44.8438 323.759 43.8438C322.759 42.8438 321.968 41.6771 321.384 40.3438C320.822 39.0104 320.541 37.5833 320.541 36.0625V12C320.541 10.4792 320.822 9.05208 321.384 7.71875C321.968 6.38542 322.759 5.21875 323.759 4.21875C324.759 3.21875 325.926 2.4375 327.259 1.875C328.613 1.29167 330.051 1 331.572 1H334.759C336.28 1 337.707 1.29167 339.041 1.875C340.374 2.4375 341.541 3.21875 342.541 4.21875C343.541 5.21875 344.322 6.38542 344.884 7.71875C345.468 9.05208 345.759 10.4792 345.759 12V13.8125L341.728 14.4375V12C341.728 11 341.541 10.0729 341.166 9.21875C340.791 8.34375 340.28 7.58333 339.634 6.9375C338.988 6.29167 338.228 5.78125 337.353 5.40625C336.499 5.03125 335.572 4.84375 334.572 4.84375H331.759C330.759 4.84375 329.822 5.03125 328.947 5.40625C328.093 5.78125 327.332 6.29167 326.666 6.9375C326.02 7.58333 325.509 8.34375 325.134 9.21875C324.759 10.0729 324.572 11 324.572 12V36.0625C324.572 37.0625 324.759 38 325.134 38.875C325.509 39.7292 326.02 40.4896 326.666 41.1562C327.332 41.8021 328.093 42.3125 328.947 42.6875C329.822 43.0625 330.759 43.25 331.759 43.25H334.572C335.572 43.25 336.499 43.0625 337.353 42.6875C338.228 42.3125 338.988 41.8021 339.634 41.1562C340.28 40.4896 340.791 39.7292 341.166 38.875C341.541 38 341.728 37.0625 341.728 36.0625V26.7188H334.572V22.875H345.759V46.4375Z" fill="#1E1231"/>
<path d="M364.984 46.4375V1.625H369.016V46.4375H364.984Z" fill="#1E1231"/>
<path d="M413.459 36.0625C413.459 37.5833 413.147 39.0104 412.522 40.3438C411.918 41.6771 411.095 42.8438 410.053 43.8438C409.032 44.8438 407.834 45.6354 406.459 46.2188C405.105 46.7812 403.668 47.0625 402.147 47.0625H398.928C397.407 47.0625 395.959 46.7812 394.584 46.2188C393.23 45.6354 392.032 44.8438 390.991 43.8438C389.97 42.8438 389.147 41.6771 388.522 40.3438C387.918 39.0104 387.616 37.5833 387.616 36.0625V34.2812L391.647 33.625V36.0625C391.647 37.0625 391.845 38 392.241 38.875C392.657 39.7292 393.209 40.4896 393.897 41.1562C394.584 41.8021 395.376 42.3125 396.272 42.6875C397.189 43.0625 398.147 43.25 399.147 43.25H401.959C402.959 43.25 403.907 43.0625 404.803 42.6875C405.699 42.3125 406.491 41.8021 407.178 41.1562C407.866 40.4896 408.407 39.7292 408.803 38.875C409.22 38 409.428 37.0625 409.428 36.0625V34.7188C409.428 33.1771 409.126 31.8958 408.522 30.875C407.918 29.8542 407.116 28.9896 406.116 28.2812C405.116 27.5521 403.98 26.9375 402.709 26.4375C401.459 25.9375 400.168 25.4375 398.834 24.9375C397.501 24.4375 396.199 23.8854 394.928 23.2812C393.678 22.6771 392.553 21.9271 391.553 21.0312C390.553 20.1146 389.751 19 389.147 17.6875C388.543 16.375 388.241 14.7604 388.241 12.8438V12C388.241 10.4792 388.522 9.05208 389.084 7.71875C389.668 6.38542 390.459 5.21875 391.459 4.21875C392.459 3.21875 393.626 2.4375 394.959 1.875C396.314 1.29167 397.751 1 399.272 1H402.147C403.668 1 405.095 1.29167 406.428 1.875C407.761 2.4375 408.928 3.21875 409.928 4.21875C410.928 5.21875 411.709 6.38542 412.272 7.71875C412.855 9.05208 413.147 10.4792 413.147 12V13.1562L409.116 13.8125V12C409.116 11 408.928 10.0729 408.553 9.21875C408.178 8.34375 407.668 7.58333 407.022 6.9375C406.376 6.29167 405.616 5.78125 404.741 5.40625C403.886 5.03125 402.959 4.84375 401.959 4.84375H399.459C398.459 4.84375 397.522 5.03125 396.647 5.40625C395.793 5.78125 395.032 6.29167 394.366 6.9375C393.72 7.58333 393.209 8.34375 392.834 9.21875C392.459 10.0729 392.272 11 392.272 12V12.8438C392.272 14.2812 392.574 15.4896 393.178 16.4688C393.782 17.4479 394.584 18.2917 395.584 19C396.584 19.6875 397.709 20.2917 398.959 20.8125C400.23 21.3125 401.532 21.8333 402.866 22.375C404.199 22.8958 405.491 23.4792 406.741 24.125C408.011 24.75 409.147 25.5312 410.147 26.4688C411.147 27.3854 411.949 28.5104 412.553 29.8438C413.157 31.1771 413.459 32.8021 413.459 34.7188V36.0625Z" fill="#1E1231"/>
<path d="M442.622 5.46875V46.4375H438.591V5.46875H427.903V1.625H453.309V5.46875H442.622Z" fill="#1E1231"/>
<path d="M490.409 46.4375L478.253 27.3125H472.722V46.4375H468.691V1.625H482.909C484.43 1.625 485.857 1.91667 487.191 2.5C488.524 3.0625 489.691 3.84375 490.691 4.84375C491.691 5.84375 492.472 7.02083 493.034 8.375C493.618 9.70833 493.909 11.1354 493.909 12.6562V16.2812C493.909 17.8021 493.618 19.2396 493.034 20.5938C492.472 21.9271 491.691 23.0938 490.691 24.0938C489.691 25.0938 488.524 25.8854 487.191 26.4688C485.857 27.0312 484.43 27.3125 482.909 27.3125L495.066 46.4375H490.409ZM489.878 12.6562C489.878 11.6562 489.691 10.7292 489.316 9.875C488.941 9 488.43 8.23958 487.784 7.59375C487.139 6.92708 486.378 6.40625 485.503 6.03125C484.649 5.65625 483.722 5.46875 482.722 5.46875H472.722V23.4688H482.722C483.722 23.4688 484.649 23.2812 485.503 22.9062C486.378 22.5312 487.139 22.0208 487.784 21.375C488.43 20.7083 488.941 19.9479 489.316 19.0938C489.691 18.2188 489.878 17.2812 489.878 16.2812V12.6562Z" fill="#1E1231"/>
<path d="M522.853 25V46.4375H518.822V25.0625L507.228 1.625H511.572L520.791 20.25L530.009 1.625H534.353L522.853 25Z" fill="#1E1231"/>
<path d="M15.8656 9.84375L9.8656 32.1562L5.83435 46.4375H1.64685L14.7719 1.625H16.8969L21 16H31V20H22L30.0844 46.4375H25.9281L15.8656 9.84375Z" stroke="#1E1231" mask="url(#path-1-outside-1_559_4186)"/>
<path d="M69.9968 36.0625C69.9968 37.5833 69.6843 39.0104 69.0593 40.3438C68.4552 41.6771 67.6323 42.8438 66.5906 43.8438C65.5698 44.8438 64.3718 45.6354 62.9968 46.2188C61.6427 46.7812 60.2052 47.0625 58.6843 47.0625H55.4656C53.9448 47.0625 52.4968 46.7812 51.1218 46.2188C49.7677 45.6354 48.5698 44.8438 47.5281 43.8438C46.5073 42.8438 45.6843 41.6771 45.0593 40.3438C44.4552 39.0104 44.1531 37.5833 44.1531 36.0625V34.2812L48.1843 33.625V36.0625C48.1843 37.0625 48.3823 38 48.7781 38.875C49.1948 39.7292 49.7468 40.4896 50.4343 41.1562C51.1218 41.8021 51.9135 42.3125 52.8093 42.6875C53.726 43.0625 54.6843 43.25 55.6843 43.25H58.4968C59.4968 43.25 60.4448 43.0625 61.3406 42.6875C62.2364 42.3125 63.0281 41.8021 63.7156 41.1562C64.4031 40.4896 64.9448 39.7292 65.3406 38.875C65.7573 38 65.9656 37.0625 65.9656 36.0625V34.7188C65.9656 33.1771 65.6635 31.8958 65.0593 30.875C64.4552 29.8542 63.6531 28.9896 62.6531 28.2812C61.6531 27.5521 60.5177 26.9375 59.2468 26.4375C57.9968 25.9375 56.7052 25.4375 55.3718 24.9375C54.0385 24.4375 52.7364 23.8854 51.4656 23.2812C50.2156 22.6771 49.0906 21.9271 48.0906 21.0312C47.0906 20.1146 46.2885 19 45.6843 17.6875C45.0802 16.375 44.7781 14.7604 44.7781 12.8438V12C44.7781 10.4792 45.0593 9.05208 45.6218 7.71875C46.2052 6.38542 46.9968 5.21875 47.9968 4.21875C48.9968 3.21875 50.1635 2.4375 51.4968 1.875C52.851 1.29167 54.2885 1 55.8093 1H58.6843C60.2052 1 61.6323 1.29167 62.9656 1.875C64.2989 2.4375 65.4656 3.21875 66.4656 4.21875C67.4656 5.21875 68.2468 6.38542 68.8093 7.71875C69.3927 9.05208 69.6843 10.4792 69.6843 12V13.1562L65.6531 13.8125V12C65.6531 11 65.4656 10.0729 65.0906 9.21875C64.7156 8.34375 64.2052 7.58333 63.5593 6.9375C62.9135 6.29167 62.1531 5.78125 61.2781 5.40625C60.4239 5.03125 59.4968 4.84375 58.4968 4.84375H55.9968C54.9968 4.84375 54.0593 5.03125 53.1843 5.40625C52.3302 5.78125 51.5698 6.29167 50.9031 6.9375C50.2573 7.58333 49.7468 8.34375 49.3718 9.21875C48.9968 10.0729 48.8093 11 48.8093 12V12.8438C48.8093 14.2812 49.1114 15.4896 49.7156 16.4688C50.3198 17.4479 51.1218 18.2917 52.1218 19C53.1218 19.6875 54.2468 20.2917 55.4968 20.8125C56.7677 21.3125 58.0698 21.8333 59.4031 22.375C60.7364 22.8958 62.0281 23.4792 63.2781 24.125C64.5489 24.75 65.6843 25.5312 66.6843 26.4688C67.6843 27.3854 68.4864 28.5104 69.0906 29.8438C69.6948 31.1771 69.9968 32.8021 69.9968 34.7188V36.0625Z" stroke="#1E1231" mask="url(#path-1-outside-1_559_4186)"/>
<path d="M112.847 36.0625C112.847 37.5833 112.534 39.0104 111.909 40.3438C111.305 41.6771 110.482 42.8438 109.441 43.8438C108.42 44.8438 107.222 45.6354 105.847 46.2188C104.493 46.7812 103.055 47.0625 101.534 47.0625H98.3156C96.7948 47.0625 95.3468 46.7812 93.9718 46.2188C92.6177 45.6354 91.4198 44.8438 90.3781 43.8438C89.3573 42.8438 88.5343 41.6771 87.9093 40.3438C87.3052 39.0104 87.0031 37.5833 87.0031 36.0625V34.2812L91.0343 33.625V36.0625C91.0343 37.0625 91.2323 38 91.6281 38.875C92.0448 39.7292 92.5968 40.4896 93.2843 41.1562C93.9718 41.8021 94.7635 42.3125 95.6593 42.6875C96.576 43.0625 97.5343 43.25 98.5343 43.25H101.347C102.347 43.25 103.295 43.0625 104.191 42.6875C105.086 42.3125 105.878 41.8021 106.566 41.1562C107.253 40.4896 107.795 39.7292 108.191 38.875C108.607 38 108.816 37.0625 108.816 36.0625V34.7188C108.816 33.1771 108.514 31.8958 107.909 30.875C107.305 29.8542 106.503 28.9896 105.503 28.2812C104.503 27.5521 103.368 26.9375 102.097 26.4375C100.847 25.9375 99.5552 25.4375 98.2218 24.9375C96.8885 24.4375 95.5864 23.8854 94.3156 23.2812C93.0656 22.6771 91.9406 21.9271 90.9406 21.0312C89.9406 20.1146 89.1385 19 88.5343 17.6875C87.9302 16.375 87.6281 14.7604 87.6281 12.8438V12C87.6281 10.4792 87.9093 9.05208 88.4718 7.71875C89.0552 6.38542 89.8468 5.21875 90.8468 4.21875C91.8468 3.21875 93.0135 2.4375 94.3468 1.875C95.701 1.29167 97.1385 1 98.6593 1H101.534C103.055 1 104.482 1.29167 105.816 1.875C107.149 2.4375 108.316 3.21875 109.316 4.21875C110.316 5.21875 111.097 6.38542 111.659 7.71875C112.243 9.05208 112.534 10.4792 112.534 12V13.1562L108.503 13.8125V12C108.503 11 108.316 10.0729 107.941 9.21875C107.566 8.34375 107.055 7.58333 106.409 6.9375C105.764 6.29167 105.003 5.78125 104.128 5.40625C103.274 5.03125 102.347 4.84375 101.347 4.84375H98.8468C97.8468 4.84375 96.9093 5.03125 96.0343 5.40625C95.1802 5.78125 94.4198 6.29167 93.7531 6.9375C93.1073 7.58333 92.5968 8.34375 92.2218 9.21875C91.8468 10.0729 91.6593 11 91.6593 12V12.8438C91.6593 14.2812 91.9614 15.4896 92.5656 16.4688C93.1698 17.4479 93.9718 18.2917 94.9718 19C95.9718 19.6875 97.0968 20.2917 98.3468 20.8125C99.6177 21.3125 100.92 21.8333 102.253 22.375C103.586 22.8958 104.878 23.4792 106.128 24.125C107.399 24.75 108.534 25.5312 109.534 26.4688C110.534 27.3854 111.336 28.5104 111.941 29.8438C112.545 31.1771 112.847 32.8021 112.847 34.7188V36.0625Z" stroke="#1E1231" mask="url(#path-1-outside-1_559_4186)"/>
<path d="M131.134 46.4375V1.625H156.353V5.46875H135.166V22.125H152.322V25.9688H135.166V42.5938H156.353V46.4375H131.134Z" stroke="#1E1231" mask="url(#path-1-outside-1_559_4186)"/>
<path d="M184.547 5.46875V46.4375H180.516V5.46875H169.828V1.625H195.234V5.46875H184.547Z" stroke="#1E1231" mask="url(#path-1-outside-1_559_4186)"/>
<path d="M256.684 46.4375L244.528 27.3125H238.997V46.4375H234.966V1.625H249.184C250.705 1.625 252.132 1.91667 253.466 2.5C254.799 3.0625 255.966 3.84375 256.966 4.84375C257.966 5.84375 258.747 7.02083 259.309 8.375C259.893 9.70833 260.184 11.1354 260.184 12.6562V16.2812C260.184 17.8021 259.893 19.2396 259.309 20.5938C258.747 21.9271 257.966 23.0938 256.966 24.0938C255.966 25.0938 254.799 25.8854 253.466 26.4688C252.132 27.0312 250.705 27.3125 249.184 27.3125L261.341 46.4375H256.684ZM256.153 12.6562C256.153 11.6562 255.966 10.7292 255.591 9.875C255.216 9 254.705 8.23958 254.059 7.59375C253.414 6.92708 252.653 6.40625 251.778 6.03125C250.924 5.65625 249.997 5.46875 248.997 5.46875H238.997V23.4688H248.997C249.997 23.4688 250.924 23.2812 251.778 22.9062C252.653 22.5312 253.414 22.0208 254.059 21.375C254.705 20.7083 255.216 19.9479 255.591 19.0938C255.966 18.2188 256.153 17.2812 256.153 16.2812V12.6562Z" stroke="#1E1231" mask="url(#path-1-outside-1_559_4186)"/>
<path d="M278.659 46.4375V1.625H303.878V5.46875H282.691V22.125H299.847V25.9688H282.691V42.5938H303.878V46.4375H278.659Z" stroke="#1E1231" mask="url(#path-1-outside-1_559_4186)"/>
<path d="M345.759 46.4375H344.478L342.134 42.8438C341.155 44.1354 339.968 45.1667 338.572 45.9375C337.176 46.6875 335.624 47.0625 333.916 47.0625H331.572C330.051 47.0625 328.613 46.7812 327.259 46.2188C325.926 45.6354 324.759 44.8438 323.759 43.8438C322.759 42.8438 321.968 41.6771 321.384 40.3438C320.822 39.0104 320.541 37.5833 320.541 36.0625V12C320.541 10.4792 320.822 9.05208 321.384 7.71875C321.968 6.38542 322.759 5.21875 323.759 4.21875C324.759 3.21875 325.926 2.4375 327.259 1.875C328.613 1.29167 330.051 1 331.572 1H334.759C336.28 1 337.707 1.29167 339.041 1.875C340.374 2.4375 341.541 3.21875 342.541 4.21875C343.541 5.21875 344.322 6.38542 344.884 7.71875C345.468 9.05208 345.759 10.4792 345.759 12V13.8125L341.728 14.4375V12C341.728 11 341.541 10.0729 341.166 9.21875C340.791 8.34375 340.28 7.58333 339.634 6.9375C338.988 6.29167 338.228 5.78125 337.353 5.40625C336.499 5.03125 335.572 4.84375 334.572 4.84375H331.759C330.759 4.84375 329.822 5.03125 328.947 5.40625C328.093 5.78125 327.332 6.29167 326.666 6.9375C326.02 7.58333 325.509 8.34375 325.134 9.21875C324.759 10.0729 324.572 11 324.572 12V36.0625C324.572 37.0625 324.759 38 325.134 38.875C325.509 39.7292 326.02 40.4896 326.666 41.1562C327.332 41.8021 328.093 42.3125 328.947 42.6875C329.822 43.0625 330.759 43.25 331.759 43.25H334.572C335.572 43.25 336.499 43.0625 337.353 42.6875C338.228 42.3125 338.988 41.8021 339.634 41.1562C340.28 40.4896 340.791 39.7292 341.166 38.875C341.541 38 341.728 37.0625 341.728 36.0625V26.7188H334.572V22.875H345.759V46.4375Z" stroke="#1E1231" mask="url(#path-1-outside-1_559_4186)"/>
<path d="M364.984 46.4375V1.625H369.016V46.4375H364.984Z" stroke="#1E1231" mask="url(#path-1-outside-1_559_4186)"/>
<path d="M413.459 36.0625C413.459 37.5833 413.147 39.0104 412.522 40.3438C411.918 41.6771 411.095 42.8438 410.053 43.8438C409.032 44.8438 407.834 45.6354 406.459 46.2188C405.105 46.7812 403.668 47.0625 402.147 47.0625H398.928C397.407 47.0625 395.959 46.7812 394.584 46.2188C393.23 45.6354 392.032 44.8438 390.991 43.8438C389.97 42.8438 389.147 41.6771 388.522 40.3438C387.918 39.0104 387.616 37.5833 387.616 36.0625V34.2812L391.647 33.625V36.0625C391.647 37.0625 391.845 38 392.241 38.875C392.657 39.7292 393.209 40.4896 393.897 41.1562C394.584 41.8021 395.376 42.3125 396.272 42.6875C397.189 43.0625 398.147 43.25 399.147 43.25H401.959C402.959 43.25 403.907 43.0625 404.803 42.6875C405.699 42.3125 406.491 41.8021 407.178 41.1562C407.866 40.4896 408.407 39.7292 408.803 38.875C409.22 38 409.428 37.0625 409.428 36.0625V34.7188C409.428 33.1771 409.126 31.8958 408.522 30.875C407.918 29.8542 407.116 28.9896 406.116 28.2812C405.116 27.5521 403.98 26.9375 402.709 26.4375C401.459 25.9375 400.168 25.4375 398.834 24.9375C397.501 24.4375 396.199 23.8854 394.928 23.2812C393.678 22.6771 392.553 21.9271 391.553 21.0312C390.553 20.1146 389.751 19 389.147 17.6875C388.543 16.375 388.241 14.7604 388.241 12.8438V12C388.241 10.4792 388.522 9.05208 389.084 7.71875C389.668 6.38542 390.459 5.21875 391.459 4.21875C392.459 3.21875 393.626 2.4375 394.959 1.875C396.314 1.29167 397.751 1 399.272 1H402.147C403.668 1 405.095 1.29167 406.428 1.875C407.761 2.4375 408.928 3.21875 409.928 4.21875C410.928 5.21875 411.709 6.38542 412.272 7.71875C412.855 9.05208 413.147 10.4792 413.147 12V13.1562L409.116 13.8125V12C409.116 11 408.928 10.0729 408.553 9.21875C408.178 8.34375 407.668 7.58333 407.022 6.9375C406.376 6.29167 405.616 5.78125 404.741 5.40625C403.886 5.03125 402.959 4.84375 401.959 4.84375H399.459C398.459 4.84375 397.522 5.03125 396.647 5.40625C395.793 5.78125 395.032 6.29167 394.366 6.9375C393.72 7.58333 393.209 8.34375 392.834 9.21875C392.459 10.0729 392.272 11 392.272 12V12.8438C392.272 14.2812 392.574 15.4896 393.178 16.4688C393.782 17.4479 394.584 18.2917 395.584 19C396.584 19.6875 397.709 20.2917 398.959 20.8125C400.23 21.3125 401.532 21.8333 402.866 22.375C404.199 22.8958 405.491 23.4792 406.741 24.125C408.011 24.75 409.147 25.5312 410.147 26.4688C411.147 27.3854 411.949 28.5104 412.553 29.8438C413.157 31.1771 413.459 32.8021 413.459 34.7188V36.0625Z" stroke="#1E1231" mask="url(#path-1-outside-1_559_4186)"/>
<path d="M442.622 5.46875V46.4375H438.591V5.46875H427.903V1.625H453.309V5.46875H442.622Z" stroke="#1E1231" mask="url(#path-1-outside-1_559_4186)"/>
<path d="M490.409 46.4375L478.253 27.3125H472.722V46.4375H468.691V1.625H482.909C484.43 1.625 485.857 1.91667 487.191 2.5C488.524 3.0625 489.691 3.84375 490.691 4.84375C491.691 5.84375 492.472 7.02083 493.034 8.375C493.618 9.70833 493.909 11.1354 493.909 12.6562V16.2812C493.909 17.8021 493.618 19.2396 493.034 20.5938C492.472 21.9271 491.691 23.0938 490.691 24.0938C489.691 25.0938 488.524 25.8854 487.191 26.4688C485.857 27.0312 484.43 27.3125 482.909 27.3125L495.066 46.4375H490.409ZM489.878 12.6562C489.878 11.6562 489.691 10.7292 489.316 9.875C488.941 9 488.43 8.23958 487.784 7.59375C487.139 6.92708 486.378 6.40625 485.503 6.03125C484.649 5.65625 483.722 5.46875 482.722 5.46875H472.722V23.4688H482.722C483.722 23.4688 484.649 23.2812 485.503 22.9062C486.378 22.5312 487.139 22.0208 487.784 21.375C488.43 20.7083 488.941 19.9479 489.316 19.0938C489.691 18.2188 489.878 17.2812 489.878 16.2812V12.6562Z" stroke="#1E1231" mask="url(#path-1-outside-1_559_4186)"/>
<path d="M522.853 25V46.4375H518.822V25.0625L507.228 1.625H511.572L520.791 20.25L530.009 1.625H534.353L522.853 25Z" stroke="#1E1231" mask="url(#path-1-outside-1_559_4186)"/>
</svg>
